<mxfile host="app.diagrams.net" modified="2021-12-03T12:59:49.211Z" agent="5.0 (Windows NT 10.0; Win64; x64) AppleWebKit/537.36 (KHTML, like Gecko) Chrome/96.0.4664.45 Safari/537.36" etag="6HQULmuRgZ6UbVf0hYd6" version="15.8.9" type="github">
  <diagram id="qq9soF8VmoWqNljp46Ra" name="Page-1">
    <mxGraphModel dx="1422" dy="705" grid="1" gridSize="10" guides="1" tooltips="1" connect="1" arrows="1" fold="1" page="1" pageScale="1" pageWidth="850" pageHeight="1100" math="0" shadow="0">
      <root>
        <mxCell id="0" />
        <mxCell id="1" parent="0" />
        <mxCell id="fMvshJ8qNNe5n__r69mN-1" value="" style="rounded=0;whiteSpace=wrap;html=1;" vertex="1" parent="1">
          <mxGeometry x="240" y="40" width="360" height="200" as="geometry" />
        </mxCell>
        <mxCell id="fMvshJ8qNNe5n__r69mN-2" value="" style="rounded=0;whiteSpace=wrap;html=1;" vertex="1" parent="1">
          <mxGeometry x="250" y="50" width="340" height="180" as="geometry" />
        </mxCell>
        <mxCell id="fMvshJ8qNNe5n__r69mN-3" value="" style="endArrow=none;html=1;rounded=0;" edge="1" parent="1">
          <mxGeometry width="50" height="50" relative="1" as="geometry">
            <mxPoint x="590" y="80" as="sourcePoint" />
            <mxPoint x="250" y="80" as="targetPoint" />
          </mxGeometry>
        </mxCell>
        <mxCell id="fMvshJ8qNNe5n__r69mN-4" value="Carian" style="text;html=1;align=center;verticalAlign=middle;resizable=0;points=[];autosize=1;strokeColor=none;fillColor=none;fontSize=20;" vertex="1" parent="1">
          <mxGeometry x="385" y="50" width="70" height="30" as="geometry" />
        </mxCell>
        <mxCell id="fMvshJ8qNNe5n__r69mN-5" value="id" style="rounded=0;whiteSpace=wrap;html=1;fontSize=20;spacingLeft=10;align=left;fontColor=#B3B3B3;" vertex="1" parent="1">
          <mxGeometry x="270" y="100" width="300" height="40" as="geometry" />
        </mxCell>
        <mxCell id="fMvshJ8qNNe5n__r69mN-6" value="Cari" style="rounded=0;whiteSpace=wrap;html=1;fontSize=20;" vertex="1" parent="1">
          <mxGeometry x="360" y="170" width="120" height="40" as="geometry" />
        </mxCell>
        <mxCell id="fMvshJ8qNNe5n__r69mN-7" value="" style="rounded=0;whiteSpace=wrap;html=1;" vertex="1" parent="1">
          <mxGeometry x="240" y="260" width="360" height="280" as="geometry" />
        </mxCell>
        <mxCell id="fMvshJ8qNNe5n__r69mN-8" value="" style="rounded=0;whiteSpace=wrap;html=1;" vertex="1" parent="1">
          <mxGeometry x="250" y="270" width="340" height="260" as="geometry" />
        </mxCell>
        <mxCell id="fMvshJ8qNNe5n__r69mN-9" value="" style="endArrow=none;html=1;rounded=0;" edge="1" parent="1">
          <mxGeometry width="50" height="50" relative="1" as="geometry">
            <mxPoint x="590" y="310" as="sourcePoint" />
            <mxPoint x="250" y="310" as="targetPoint" />
          </mxGeometry>
        </mxCell>
        <mxCell id="fMvshJ8qNNe5n__r69mN-11" value="Hasil" style="text;html=1;strokeColor=none;fillColor=none;align=center;verticalAlign=middle;whiteSpace=wrap;rounded=0;fontSize=20;" vertex="1" parent="1">
          <mxGeometry x="350" y="270" width="140" height="40" as="geometry" />
        </mxCell>
        <mxCell id="fMvshJ8qNNe5n__r69mN-14" value="id:" style="rounded=0;whiteSpace=wrap;html=1;fontSize=20;movable=1;resizable=1;rotatable=1;deletable=1;editable=1;connectable=1;align=left;spacingLeft=10;" vertex="1" parent="1">
          <mxGeometry x="270" y="330" width="110" height="35" as="geometry" />
        </mxCell>
        <mxCell id="fMvshJ8qNNe5n__r69mN-15" value="nama:" style="rounded=0;whiteSpace=wrap;html=1;fontSize=20;movable=1;resizable=1;rotatable=1;deletable=1;editable=1;connectable=1;align=left;spacingLeft=10;" vertex="1" parent="1">
          <mxGeometry x="270" y="380" width="110" height="35" as="geometry" />
        </mxCell>
        <mxCell id="fMvshJ8qNNe5n__r69mN-16" value="lain2:" style="rounded=0;whiteSpace=wrap;html=1;fontSize=20;movable=1;resizable=1;rotatable=1;deletable=1;editable=1;connectable=1;align=left;spacingLeft=10;" vertex="1" parent="1">
          <mxGeometry x="270" y="480" width="110" height="35" as="geometry" />
        </mxCell>
        <mxCell id="fMvshJ8qNNe5n__r69mN-17" value="lain1:" style="rounded=0;whiteSpace=wrap;html=1;fontSize=20;movable=1;resizable=1;rotatable=1;deletable=1;editable=1;connectable=1;align=left;spacingLeft=10;" vertex="1" parent="1">
          <mxGeometry x="270" y="430" width="110" height="35" as="geometry" />
        </mxCell>
        <mxCell id="fMvshJ8qNNe5n__r69mN-19" value="lain2" style="rounded=0;whiteSpace=wrap;html=1;fontSize=20;movable=1;resizable=1;rotatable=1;deletable=1;editable=1;connectable=1;align=center;spacingLeft=0;" vertex="1" parent="1">
          <mxGeometry x="390" y="480" width="190" height="35" as="geometry" />
        </mxCell>
        <mxCell id="fMvshJ8qNNe5n__r69mN-20" value="lain1" style="rounded=0;whiteSpace=wrap;html=1;fontSize=20;movable=1;resizable=1;rotatable=1;deletable=1;editable=1;connectable=1;align=center;spacingLeft=0;" vertex="1" parent="1">
          <mxGeometry x="390" y="430" width="190" height="35" as="geometry" />
        </mxCell>
        <mxCell id="fMvshJ8qNNe5n__r69mN-21" value="nama" style="rounded=0;whiteSpace=wrap;html=1;fontSize=20;movable=1;resizable=1;rotatable=1;deletable=1;editable=1;connectable=1;align=center;spacingLeft=0;" vertex="1" parent="1">
          <mxGeometry x="390" y="380" width="190" height="35" as="geometry" />
        </mxCell>
        <mxCell id="fMvshJ8qNNe5n__r69mN-22" value="id" style="rounded=0;whiteSpace=wrap;html=1;fontSize=20;movable=1;resizable=1;rotatable=1;deletable=1;editable=1;connectable=1;align=center;spacingLeft=0;" vertex="1" parent="1">
          <mxGeometry x="390" y="330" width="190" height="35" as="geometry" />
        </mxCell>
      </root>
    </mxGraphModel>
  </diagram>
</mxfile>
